<svg xmlns="http://www.w3.org/2000/svg" xmlns:svgjs="http://svgjs.com/svgjs" xmlns:xlink="http://www.w3.org/1999/xlink"
    width="50" height="50" viewBox="0 0 64 64">
    <path fill="#1c2333"
        d="M -1 -108.355469 L -1 -43.53125 L 66.058594 -43.53125 L 66.058594 -108.355469 Z M 32 6 C 17.664062 6 6 17.664062 6 32 C 6 32.695312 6.023438 33.324219 6.070312 33.925781 L 6.125 34.566406 C 6.125 34.601562 6.128906 34.636719 6.132812 34.667969 C 6.328125 36.582031 6.742188 38.472656 7.359375 40.289062 C 7.503906 40.722656 7.664062 41.15625 7.832031 41.582031 L 6.464844 42.945312 L 3.488281 45.917969 C 2.375 47.035156 1.996094 48.707031 2.574219 50.171875 C 3.492188 52.503906 4.996094 54.828125 7.050781 56.878906 C 8.792969 58.625 10.730469 59.972656 12.707031 60.898438 C 13.226562 61.144531 13.78125 61.261719 14.332031 61.261719 C 15.375 61.261719 16.40625 60.84375 17.175781 60.074219 L 21.472656 55.777344 C 21.878906 55.957031 22.292969 56.128906 22.710938 56.289062 C 24.835938 57.101562 27.058594 57.632812 29.363281 57.871094 L 30.074219 57.929688 C 30.675781 57.976562 31.304688 58 32 58 C 35.054688 58 38.046875 57.472656 40.890625 56.4375 C 41.410156 56.25 41.675781 55.675781 41.488281 55.15625 C 41.300781 54.640625 40.722656 54.371094 40.207031 54.558594 C 37.582031 55.515625 34.820312 56 32 56 C 31.359375 56 30.78125 55.980469 30.234375 55.933594 L 29.535156 55.882812 L 29.535156 55.878906 C 27.441406 55.664062 25.386719 55.171875 23.425781 54.421875 C 16.699219 51.851562 11.53125 46.46875 9.253906 39.648438 C 8.683594 37.972656 8.300781 36.226562 8.121094 34.476562 L 8.066406 33.765625 C 8.019531 33.21875 8 32.640625 8 32 C 8 18.765625 18.765625 8 32 8 C 45.234375 8 56 18.765625 56 32 C 56 33.660156 55.832031 35.316406 55.496094 36.917969 C 55.382812 37.460938 55.730469 37.992188 56.269531 38.101562 C 56.816406 38.21875 57.339844 37.867188 57.453125 37.328125 C 57.816406 35.589844 58 33.796875 58 32 C 58 17.664062 46.335938 6 32 6 Z M 32 10.808594 C 20.3125 10.808594 10.808594 20.316406 10.808594 32 C 10.808594 43.683594 20.3125 53.191406 32 53.191406 C 43.6875 53.191406 53.191406 43.6875 53.191406 32 C 53.191406 20.3125 43.6875 10.808594 32 10.808594 Z M 29.601562 12.976562 C 28.804688 13.671875 28.273438 14.542969 28.160156 15.539062 C 27.847656 18.28125 30.71875 20.863281 34.574219 21.300781 C 34.953125 21.34375 35.324219 21.363281 35.6875 21.363281 C 39.058594 21.363281 41.835938 19.601562 42.113281 17.125 C 42.171875 16.617188 42.121094 16.117188 41.976562 15.636719 C 47.492188 19.011719 51.191406 25.074219 51.191406 32 C 51.191406 42.582031 42.582031 51.191406 32 51.191406 C 28.875 51.191406 25.933594 50.425781 23.320312 49.097656 L 27.074219 45.34375 C 28.386719 46.253906 30.121094 46.816406 31.886719 46.886719 C 34.300781 46.976562 36.394531 46.179688 37.828125 44.640625 C 39.28125 43.078125 40.152344 41.140625 40.273438 39.175781 C 40.40625 37.132812 39.726562 35.308594 38.363281 34.039062 C 37.351562 33.101562 36.324219 32.484375 35.300781 32.1875 C 34.972656 30.972656 34.320312 29.867188 33.421875 29.03125 C 32.308594 27.996094 30.898438 27.457031 29.441406 27.402344 C 29.226562 26.089844 28.625 24.933594 27.679688 24.054688 C 26.371094 22.835938 24.578125 22.308594 22.636719 22.570312 C 20.769531 22.824219 18.976562 23.785156 17.585938 25.277344 C 14.761719 28.308594 16.464844 34.1875 18.621094 36.964844 L 14.90625 40.683594 C 13.574219 38.074219 12.808594 35.125 12.808594 32 C 12.808594 22.230469 20.148438 14.160156 29.597656 12.976562 Z M 34.585938 13.300781 C 34.882812 13.300781 35.179688 13.316406 35.476562 13.351562 C 38.417969 13.6875 40.289062 15.488281 40.128906 16.898438 C 39.972656 18.28125 38.019531 19.363281 35.6875 19.363281 C 35.394531 19.363281 35.097656 19.347656 34.800781 19.3125 C 33.367188 19.148438 32.035156 18.597656 31.144531 17.796875 C 30.726562 17.425781 30.046875 16.664062 30.148438 15.765625 C 30.304688 14.382812 32.253906 13.300781 34.585938 13.300781 Z M 23.882812 24.511719 C 24.824219 24.570312 25.667969 24.914062 26.3125 25.515625 C 26.902344 26.0625 27.289062 26.789062 27.445312 27.621094 C 26.164062 27.953125 24.9375 28.660156 23.945312 29.726562 C 23.515625 30.183594 23.15625 30.722656 22.894531 31.285156 C 22.347656 32.460938 22.730469 33.804688 23.832031 34.558594 C 24.898438 35.289062 26.261719 35.164062 27.175781 34.207031 C 28.460938 32.828125 29.269531 31.132812 29.476562 29.402344 C 30.429688 29.460938 31.339844 29.820312 32.058594 30.492188 C 32.515625 30.917969 32.882812 31.445312 33.136719 32.035156 C 31.800781 32.242188 30.496094 33.003906 29.269531 34.320312 C 29.117188 34.480469 28.976562 34.648438 28.839844 34.828125 C 27.949219 35.988281 28.023438 37.59375 29.023438 38.734375 C 30.027344 39.871094 31.554688 40.144531 32.824219 39.402344 C 33.167969 39.203125 33.472656 38.960938 33.730469 38.683594 C 34.820312 37.515625 35.445312 36.027344 35.535156 34.429688 C 36.011719 34.679688 36.5 35.035156 37 35.5 C 37.914062 36.355469 38.371094 37.613281 38.28125 39.042969 C 38.183594 40.546875 37.503906 42.050781 36.367188 43.273438 C 34.972656 44.765625 33.011719 44.925781 31.96875 44.882812 C 30.324219 44.816406 28.679688 44.199219 27.679688 43.269531 C 27.289062 42.902344 26.671875 42.910156 26.292969 43.292969 L 21.523438 48.0625 C 19.300781 46.605469 17.394531 44.703125 15.9375 42.476562 L 20.707031 37.710938 C 20.898438 37.519531 21.003906 37.257812 21 36.984375 C 20.992188 36.710938 20.878906 36.457031 20.679688 36.273438 C 18.648438 34.375 17.042969 28.789062 19.050781 26.636719 C 20.125 25.480469 21.492188 24.742188 22.90625 24.550781 C 23.238281 24.503906 23.566406 24.492188 23.882812 24.511719 Z M 27.394531 29.730469 C 27.144531 30.847656 26.558594 31.929688 25.695312 32.859375 C 25.417969 33.144531 25.117188 33.007812 24.960938 32.902344 C 24.851562 32.828125 24.511719 32.550781 24.707031 32.125 C 24.882812 31.753906 25.125 31.390625 25.410156 31.085938 C 25.988281 30.464844 26.671875 30.011719 27.394531 29.730469 Z M 33.546875 34.007812 C 33.554688 35.253906 33.105469 36.421875 32.269531 37.320312 C 32.144531 37.453125 31.992188 37.570312 31.820312 37.671875 C 31.152344 38.058594 30.625 37.523438 30.527344 37.410156 C 30.421875 37.292969 29.9375 36.683594 30.429688 36.042969 C 30.527344 35.914062 30.628906 35.792969 30.734375 35.679688 C 31.671875 34.671875 32.601562 34.113281 33.546875 34.007812 Z M 54.34375 40.828125 C 53.804688 40.726562 53.28125 41.082031 53.175781 41.628906 C 53.074219 42.171875 53.433594 42.691406 53.976562 42.792969 L 55.941406 43.160156 C 56.035156 43.175781 56.125 43.183594 56.214844 43.175781 C 56.648438 43.136719 57.027344 42.8125 57.109375 42.363281 C 57.210938 41.820312 56.851562 41.296875 56.308594 41.195312 Z M 8.648438 43.585938 C 10.972656 48.429688 14.78125 52.375 19.542969 54.878906 L 18.03125 56.390625 C 12.148438 53.507812 8.824219 48.902344 6.992188 45.246094 L 7.878906 44.359375 Z M 52.511719 45.585938 C 52.125 45.539062 51.730469 45.71875 51.519531 46.074219 C 51.242188 46.554688 51.40625 47.167969 51.882812 47.445312 L 53.609375 48.449219 C 53.792969 48.558594 54 48.601562 54.199219 48.585938 C 54.511719 48.558594 54.808594 48.382812 54.976562 48.09375 C 55.257812 47.613281 55.09375 47 54.617188 46.726562 L 52.890625 45.71875 C 52.769531 45.648438 52.644531 45.605469 52.511719 45.585938 Z M 5.507812 46.730469 C 7.46875 50.445312 10.847656 54.90625 16.539062 57.882812 L 15.761719 58.660156 C 15.378906 59.042969 14.855469 59.261719 14.332031 59.261719 C 14.058594 59.261719 13.800781 59.203125 13.554688 59.089844 C 11.71875 58.226562 10.003906 57.007812 8.460938 55.464844 C 6.675781 53.679688 5.28125 51.59375 4.433594 49.4375 C 4.152344 48.726562 4.335938 47.902344 4.902344 47.335938 Z M 49.195312 49.488281 C 48.9375 49.46875 48.675781 49.542969 48.46875 49.722656 C 48.046875 50.082031 47.992188 50.710938 48.351562 51.132812 L 49.644531 52.660156 C 49.859375 52.917969 50.179688 53.035156 50.492188 53.007812 C 50.691406 52.992188 50.886719 52.914062 51.054688 52.773438 C 51.472656 52.414062 51.523438 51.785156 51.167969 51.363281 L 49.875 49.839844 C 49.699219 49.628906 49.449219 49.507812 49.195312 49.488281 Z M 44.761719 52.066406 C 44.632812 52.0625 44.5 52.082031 44.367188 52.132812 C 43.851562 52.324219 43.59375 52.902344 43.789062 53.417969 L 44.492188 55.289062 C 44.652344 55.71875 45.078125 55.972656 45.515625 55.933594 C 45.605469 55.925781 45.691406 55.90625 45.78125 55.871094 C 46.296875 55.679688 46.554688 55.101562 46.363281 54.585938 L 45.660156 52.710938 C 45.511719 52.324219 45.152344 52.082031 44.761719 52.066406 Z M 44.761719 52.066406 "
        class="color5bb9ae svgShape" />
</svg>