<?xml version="1.0" encoding="UTF-8"?>
<svg xmlns="http://www.w3.org/2000/svg" xmlns:xlink="http://www.w3.org/1999/xlink" viewBox="0 0 64 64" width="50" height="50">
<g id="surface152365700">
<path style=" stroke:none;fill-rule:nonzero;fill:rgb(100%,100%,100%);fill-opacity:1;" d="M 57 32.128906 C 57 46.007812 45.75 57.261719 31.871094 57.261719 C 31.242188 57.261719 30.621094 57.242188 30.015625 57.191406 C 29.773438 57.171875 29.539062 57.152344 29.300781 57.132812 L 29.289062 57.132812 C 27.054688 56.902344 24.910156 56.378906 22.890625 55.605469 C 15.914062 52.9375 10.433594 47.257812 8.054688 40.140625 C 7.464844 38.410156 7.058594 36.59375 6.867188 34.710938 L 6.867188 34.699219 C 6.847656 34.457031 6.828125 34.226562 6.808594 33.984375 C 6.757812 33.378906 6.738281 32.757812 6.738281 32.128906 C 6.738281 18.25 17.992188 7 31.871094 7 C 45.75 7 57 18.25 57 32.128906 Z M 57 32.128906 "/>
<path style=" stroke:none;fill-rule:nonzero;fill:rgb(38.039216%,100%,92.941177%);fill-opacity:1;" d="M 53.191406 32 C 53.191406 43.703125 43.703125 53.191406 32 53.191406 C 20.296875 53.191406 10.808594 43.703125 10.808594 32 C 10.808594 20.296875 20.296875 10.808594 32 10.808594 C 43.703125 10.808594 53.191406 20.296875 53.191406 32 Z M 53.191406 32 "/>
<path style=" stroke:none;fill-rule:nonzero;fill:rgb(92.156863%,100%,99.215686%);fill-opacity:1;" d="M 46 32 C 46 39.730469 39.730469 46 32 46 C 24.269531 46 18 39.730469 18 32 C 18 24.269531 24.269531 18 32 18 C 39.730469 18 46 24.269531 46 32 Z M 46 32 "/>
<path style=" stroke:none;fill-rule:nonzero;fill:rgb(100%,100%,100%);fill-opacity:1;" d="M 42.121094 17.121094 C 41.828125 19.601562 39.058594 21.359375 35.691406 21.359375 C 35.320312 21.359375 34.949219 21.339844 34.570312 21.300781 C 30.71875 20.859375 27.851562 18.28125 28.160156 15.539062 C 28.441406 13.058594 31.21875 11.300781 34.589844 11.300781 C 34.949219 11.300781 35.328125 11.320312 35.699219 11.359375 C 39.558594 11.800781 42.429688 14.378906 42.121094 17.121094 Z M 42.121094 17.121094 "/>
<path style=" stroke:none;fill-rule:nonzero;fill:rgb(12.54902%,52.941179%,48.235294%);fill-opacity:1;" d="M 23 54.25 L 17.179688 60.070312 C 16.410156 60.839844 15.371094 61.261719 14.328125 61.261719 C 13.78125 61.261719 13.230469 61.140625 12.699219 60.898438 C 10.730469 59.96875 8.789062 58.621094 7.050781 56.878906 C 5 54.828125 3.488281 52.5 2.570312 50.171875 C 1.988281 48.710938 2.371094 47.03125 3.488281 45.921875 L 6.460938 42.941406 L 9.371094 40.039062 C 11.550781 46.578125 16.589844 51.800781 23 54.25 Z M 23 54.25 "/>
<path style=" stroke:none;fill-rule:nonzero;fill:rgb(35.686275%,72.549021%,68.235296%);fill-opacity:1;" d="M 32 53.191406 C 20.3125 53.191406 10.808594 43.683594 10.808594 32 C 10.808594 20.316406 20.3125 10.808594 32 10.808594 C 43.6875 10.808594 53.191406 20.3125 53.191406 32 C 53.191406 43.6875 43.6875 53.191406 32 53.191406 Z M 32 12.808594 C 21.417969 12.808594 12.808594 21.417969 12.808594 32 C 12.808594 42.582031 21.417969 51.191406 32 51.191406 C 42.582031 51.191406 51.191406 42.582031 51.191406 32 C 51.191406 21.417969 42.582031 12.808594 32 12.808594 Z M 32 12.808594 "/>
<path style=" stroke:none;fill-rule:nonzero;fill:rgb(35.686275%,72.549021%,68.235296%);fill-opacity:1;" d="M 8.652344 43.585938 C 10.972656 48.429688 14.78125 52.375 19.542969 54.878906 L 15.761719 58.660156 C 15.378906 59.042969 14.859375 59.261719 14.332031 59.261719 C 14.058594 59.261719 13.796875 59.203125 13.554688 59.089844 C 11.71875 58.226562 10.003906 57.007812 8.460938 55.46875 C 6.671875 53.679688 5.28125 51.59375 4.433594 49.441406 C 4.152344 48.726562 4.335938 47.902344 4.902344 47.335938 L 8.652344 43.585938 M 9.367188 40.039062 L 6.464844 42.945312 L 3.488281 45.921875 C 2.375 47.035156 1.996094 48.703125 2.570312 50.171875 C 3.488281 52.503906 4.996094 54.828125 7.050781 56.878906 C 8.792969 58.621094 10.730469 59.972656 12.703125 60.898438 C 13.226562 61.144531 13.78125 61.261719 14.332031 61.261719 C 15.375 61.261719 16.40625 60.84375 17.175781 60.074219 L 23 54.25 C 16.589844 51.800781 11.554688 46.578125 9.367188 40.039062 Z M 9.367188 40.039062 "/>
<path style=" stroke:none;fill-rule:nonzero;fill:rgb(35.686275%,72.549021%,68.235296%);fill-opacity:1;" d="M 34.589844 13.300781 C 34.882812 13.300781 35.179688 13.316406 35.476562 13.351562 C 38.417969 13.683594 40.289062 15.488281 40.128906 16.898438 C 39.972656 18.28125 38.019531 19.363281 35.6875 19.363281 C 35.394531 19.363281 35.097656 19.347656 34.800781 19.3125 C 33.367188 19.148438 32.03125 18.597656 31.140625 17.796875 C 30.726562 17.425781 30.046875 16.664062 30.148438 15.765625 C 30.304688 14.382812 32.253906 13.300781 34.589844 13.300781 M 34.589844 11.300781 C 31.21875 11.300781 28.441406 13.0625 28.160156 15.539062 C 27.847656 18.28125 30.722656 20.863281 34.574219 21.300781 C 34.949219 21.34375 35.324219 21.363281 35.6875 21.363281 C 39.058594 21.363281 41.835938 19.601562 42.117188 17.125 C 42.429688 14.382812 39.554688 11.800781 35.703125 11.363281 C 35.324219 11.320312 34.953125 11.300781 34.589844 11.300781 Z M 34.589844 11.300781 "/>
<path style=" stroke:none;fill-rule:nonzero;fill:rgb(35.686275%,72.549021%,68.235296%);fill-opacity:1;" d="M 22 50 C 21.742188 50 21.488281 49.902344 21.292969 49.707031 C 20.902344 49.316406 20.902344 48.683594 21.292969 48.292969 L 26.292969 43.292969 C 26.671875 42.910156 27.289062 42.902344 27.683594 43.269531 C 28.679688 44.199219 30.324219 44.816406 31.96875 44.882812 C 33.011719 44.925781 34.972656 44.765625 36.363281 43.273438 C 37.503906 42.050781 38.183594 40.546875 38.28125 39.042969 C 38.371094 37.613281 37.914062 36.355469 36.996094 35.5 C 36.5 35.035156 36.015625 34.679688 35.535156 34.429688 C 35.445312 36.027344 34.820312 37.515625 33.730469 38.683594 C 33.472656 38.960938 33.167969 39.199219 32.824219 39.402344 C 31.554688 40.144531 30.027344 39.871094 29.023438 38.734375 C 28.023438 37.597656 27.949219 35.988281 28.839844 34.824219 C 28.976562 34.648438 29.117188 34.480469 29.265625 34.320312 C 30.496094 33.003906 31.800781 32.242188 33.136719 32.035156 C 32.882812 31.445312 32.515625 30.917969 32.058594 30.492188 C 31.339844 29.820312 30.429688 29.460938 29.476562 29.398438 C 29.269531 31.132812 28.460938 32.828125 27.175781 34.207031 C 26.261719 35.164062 24.902344 35.289062 23.828125 34.558594 C 22.730469 33.804688 22.347656 32.460938 22.890625 31.285156 C 23.152344 30.722656 23.515625 30.183594 23.945312 29.726562 C 24.9375 28.660156 26.164062 27.953125 27.445312 27.617188 C 27.289062 26.785156 26.902344 26.0625 26.316406 25.515625 C 25.453125 24.714844 24.242188 24.371094 22.90625 24.550781 C 21.492188 24.738281 20.125 25.480469 19.046875 26.636719 C 17.042969 28.789062 18.644531 34.375 20.679688 36.269531 C 20.878906 36.457031 20.992188 36.714844 21 36.984375 C 21.003906 37.257812 20.898438 37.519531 20.707031 37.710938 L 15.707031 42.710938 C 15.316406 43.101562 14.683594 43.101562 14.292969 42.710938 C 13.902344 42.320312 13.902344 41.6875 14.292969 41.296875 L 18.621094 36.964844 C 16.464844 34.1875 14.757812 28.308594 17.585938 25.273438 C 18.976562 23.78125 20.769531 22.820312 22.636719 22.570312 C 24.578125 22.308594 26.371094 22.835938 27.679688 24.054688 C 28.621094 24.933594 29.226562 26.089844 29.441406 27.398438 C 30.898438 27.457031 32.308594 27.996094 33.421875 29.03125 C 34.320312 29.867188 34.96875 30.972656 35.300781 32.1875 C 36.324219 32.484375 37.351562 33.101562 38.359375 34.039062 C 39.726562 35.308594 40.40625 37.132812 40.273438 39.171875 C 40.152344 41.140625 39.28125 43.078125 37.828125 44.640625 C 36.394531 46.179688 34.296875 46.976562 31.890625 46.882812 C 30.121094 46.816406 28.386719 46.253906 27.074219 45.34375 L 22.707031 49.710938 C 22.511719 49.902344 22.257812 50 22 50 Z M 33.546875 34.007812 C 32.601562 34.113281 31.671875 34.671875 30.730469 35.683594 C 30.628906 35.796875 30.527344 35.914062 30.429688 36.042969 C 29.9375 36.683594 30.425781 37.292969 30.527344 37.410156 C 30.625 37.523438 31.152344 38.058594 31.820312 37.671875 C 31.992188 37.570312 32.144531 37.449219 32.269531 37.316406 C 33.105469 36.421875 33.554688 35.253906 33.546875 34.007812 Z M 27.394531 29.730469 C 26.671875 30.011719 25.988281 30.464844 25.410156 31.085938 C 25.125 31.390625 24.882812 31.753906 24.707031 32.125 C 24.511719 32.550781 24.851562 32.828125 24.960938 32.902344 C 25.117188 33.007812 25.421875 33.144531 25.695312 32.859375 C 26.5625 31.929688 27.144531 30.847656 27.394531 29.730469 Z M 27.394531 29.730469 "/>
<path style=" stroke:none;fill-rule:nonzero;fill:rgb(35.686275%,72.549021%,68.235296%);fill-opacity:1;" d="M 32 58 C 31.304688 58 30.675781 57.976562 30.074219 57.929688 L 29.359375 57.871094 C 27.058594 57.632812 24.835938 57.101562 22.710938 56.289062 C 15.421875 53.503906 9.828125 47.671875 7.359375 40.289062 C 6.738281 38.476562 6.324219 36.582031 6.128906 34.671875 C 6.128906 34.636719 6.125 34.601562 6.125 34.566406 L 6.070312 33.925781 C 6.023438 33.324219 6 32.695312 6 32 C 6 17.664062 17.664062 6 32 6 C 46.335938 6 58 17.664062 58 32 C 58 33.796875 57.816406 35.589844 57.453125 37.328125 C 57.339844 37.867188 56.8125 38.21875 56.269531 38.101562 C 55.730469 37.992188 55.382812 37.460938 55.496094 36.921875 C 55.828125 35.316406 56 33.660156 56 32 C 56 18.765625 45.234375 8 32 8 C 18.765625 8 8 18.765625 8 32 C 8 32.640625 8.019531 33.21875 8.0625 33.765625 L 8.121094 34.476562 C 8.300781 36.226562 8.683594 37.972656 9.253906 39.648438 C 11.53125 46.46875 16.695312 51.851562 23.425781 54.421875 C 25.386719 55.171875 27.441406 55.664062 29.535156 55.878906 L 29.535156 55.882812 L 30.234375 55.9375 C 30.78125 55.980469 31.359375 56 32 56 C 34.820312 56 37.582031 55.515625 40.207031 54.5625 C 40.726562 54.371094 41.300781 54.640625 41.488281 55.160156 C 41.679688 55.679688 41.410156 56.253906 40.890625 56.441406 C 38.046875 57.476562 35.054688 58 32 58 Z M 32 58 "/>
<path style=" stroke:none;fill-rule:nonzero;fill:rgb(35.686275%,72.549021%,68.235296%);fill-opacity:1;" d="M 18.097656 58.636719 C 10.722656 55.378906 6.820312 49.652344 4.84375 45.421875 L 6.65625 44.578125 C 8.484375 48.496094 12.097656 53.800781 18.902344 56.808594 Z M 18.097656 58.636719 "/>
<path style=" stroke:none;fill-rule:nonzero;fill:rgb(35.686275%,72.549021%,68.235296%);fill-opacity:1;" d="M 56.214844 43.175781 C 56.125 43.183594 56.035156 43.179688 55.941406 43.160156 L 53.976562 42.792969 C 53.433594 42.691406 53.074219 42.167969 53.179688 41.625 C 53.28125 41.082031 53.804688 40.726562 54.34375 40.828125 L 56.3125 41.195312 C 56.851562 41.296875 57.210938 41.820312 57.109375 42.363281 C 57.027344 42.8125 56.648438 43.136719 56.214844 43.175781 Z M 56.214844 43.175781 "/>
<path style=" stroke:none;fill-rule:nonzero;fill:rgb(35.686275%,72.549021%,68.235296%);fill-opacity:1;" d="M 54.199219 48.585938 C 54.003906 48.601562 53.796875 48.558594 53.609375 48.453125 L 51.882812 47.445312 C 51.40625 47.167969 51.242188 46.554688 51.523438 46.078125 C 51.800781 45.601562 52.414062 45.4375 52.890625 45.71875 L 54.617188 46.722656 C 55.09375 47 55.257812 47.613281 54.976562 48.09375 C 54.808594 48.382812 54.511719 48.558594 54.199219 48.585938 Z M 54.199219 48.585938 "/>
<path style=" stroke:none;fill-rule:nonzero;fill:rgb(35.686275%,72.549021%,68.235296%);fill-opacity:1;" d="M 50.492188 53.007812 C 50.179688 53.035156 49.859375 52.914062 49.640625 52.65625 L 48.351562 51.132812 C 47.992188 50.710938 48.046875 50.078125 48.464844 49.722656 C 48.886719 49.367188 49.519531 49.417969 49.875 49.839844 L 51.167969 51.363281 C 51.523438 51.785156 51.472656 52.414062 51.050781 52.773438 C 50.886719 52.914062 50.691406 52.992188 50.492188 53.007812 Z M 50.492188 53.007812 "/>
<path style=" stroke:none;fill-rule:nonzero;fill:rgb(35.686275%,72.549021%,68.235296%);fill-opacity:1;" d="M 45.511719 55.933594 C 45.078125 55.972656 44.652344 55.71875 44.492188 55.289062 L 43.785156 53.417969 C 43.59375 52.902344 43.855469 52.324219 44.371094 52.128906 C 44.886719 51.9375 45.464844 52.195312 45.65625 52.714844 L 46.363281 54.585938 C 46.554688 55.101562 46.296875 55.679688 45.777344 55.871094 C 45.691406 55.90625 45.601562 55.925781 45.511719 55.933594 Z M 45.511719 55.933594 "/>
</g>
</svg>
